<?xml version="1.0" standalone="no"?><!DOCTYPE svg PUBLIC "-//W3C//DTD SVG 1.1//EN" "http://www.w3.org/Graphics/SVG/1.1/DTD/svg11.dtd"><svg class="icon" width="200px" height="200.00px" viewBox="0 0 1024 1024" version="1.1" xmlns="http://www.w3.org/2000/svg"><path fill="#1296db" d="M218.666667 170.666667h213.333333a42.666667 42.666667 0 0 1 42.666667 42.666666v213.333334a42.666667 42.666667 0 0 1-42.666667 42.666666h-213.333333a42.666667 42.666667 0 0 1-42.666667-42.666666V213.333333a42.666667 42.666667 0 0 1 42.666667-42.666666zM213.333333 554.666667h213.333334a42.666667 42.666667 0 0 1 42.666666 42.666666v213.333334a42.666667 42.666667 0 0 1-42.666666 42.666666H213.333333a42.666667 42.666667 0 0 1-42.666666-42.666666v-213.333334a42.666667 42.666667 0 0 1 42.666666-42.666666z m384 0h213.333334a42.666667 42.666667 0 0 1 42.666666 42.666666v213.333334a42.666667 42.666667 0 0 1-42.666666 42.666666h-213.333334a42.666667 42.666667 0 0 1-42.666666-42.666666v-213.333334a42.666667 42.666667 0 0 1 42.666666-42.666666z m0-384h213.333334a42.666667 42.666667 0 0 1 42.666666 42.666666v213.333334a42.666667 42.666667 0 0 1-42.666666 42.666666h-213.333334a42.666667 42.666667 0 0 1-42.666666-42.666666V213.333333a42.666667 42.666667 0 0 1 42.666666-42.666666z" /></svg>