<?xml version="1.0" standalone="no"?><!DOCTYPE svg PUBLIC "-//W3C//DTD SVG 1.1//EN" "http://www.w3.org/Graphics/SVG/1.1/DTD/svg11.dtd"><svg class="icon" width="200px" height="200.00px" viewBox="0 0 1024 1024" version="1.1" xmlns="http://www.w3.org/2000/svg"><path fill="#1296db" d="M160 341.333333h149.333333a21.333333 21.333333 0 0 1 21.333334 21.333334v480a21.333333 21.333333 0 0 1-21.333334 21.333333h-149.333333a21.333333 21.333333 0 0 1-21.333333-21.333333V362.666667a21.333333 21.333333 0 0 1 21.333333-21.333334z m277.333333-176h149.333334a21.333333 21.333333 0 0 1 21.333333 21.333334V842.666667a21.333333 21.333333 0 0 1-21.333333 21.333333h-149.333334a21.333333 21.333333 0 0 1-21.333333-21.333333V186.666667a21.333333 21.333333 0 0 1 21.333333-21.333334z m277.333334 320h149.333333a21.333333 21.333333 0 0 1 21.333333 21.333334v336a21.333333 21.333333 0 0 1-21.333333 21.333333h-149.333333a21.333333 21.333333 0 0 1-21.333334-21.333333v-336a21.333333 21.333333 0 0 1 21.333334-21.333334z" /></svg>