<?xml version="1.0" standalone="no"?><!DOCTYPE svg PUBLIC "-//W3C//DTD SVG 1.1//EN" "http://www.w3.org/Graphics/SVG/1.1/DTD/svg11.dtd"><svg class="icon" width="200px" height="200.00px" viewBox="0 0 1024 1024" version="1.1" xmlns="http://www.w3.org/2000/svg"><path fill="#1296db" d="M682.666667 736.853333v-0.853333H341.333333v0.597333l-122.026666-205.482666a42.666667 42.666667 0 0 1 1.28-45.568l256-381.312A42.325333 42.325333 0 0 1 511.317333 85.333333l-33.749333 360.405334a74.666667 74.666667 0 1 0 67.242667-0.853334l-29.269334-359.424c12.373333 1.024 24.32 7.338667 32 18.986667l256 386.645333a42.666667 42.666667 0 0 1 0.896 45.781334L682.666667 736.810667z m0 41.813334V896a42.666667 42.666667 0 0 1-42.666667 42.666667H384a42.666667 42.666667 0 0 1-42.666667-42.666667v-117.333333h341.333334z" /></svg>