<?xml version="1.0" standalone="no"?><!DOCTYPE svg PUBLIC "-//W3C//DTD SVG 1.1//EN" "http://www.w3.org/Graphics/SVG/1.1/DTD/svg11.dtd"><svg class="icon" width="200px" height="200.00px" viewBox="0 0 1024 1024" version="1.1" xmlns="http://www.w3.org/2000/svg"><path fill="#1296db" d="M896 636.373333l-230.442667-176.853333a42.666667 42.666667 0 0 0-64.298666 4.608l-163.157334 160.64-94.421333-62.933333a42.666667 42.666667 0 0 0-52.48 4.053333L128 715.434667V213.333333a42.666667 42.666667 0 0 1 42.666667-42.666666h682.666666a42.666667 42.666667 0 0 1 42.666667 42.666666v423.04z m0 106.666667V853.333333a42.666667 42.666667 0 0 1-42.666667 42.666667H170.666667a42.666667 42.666667 0 0 1-42.666667-42.666667v-22.101333l196.181333-179.84 100.138667 66.773333A42.666667 42.666667 0 0 0 482.133333 708.266667L640 554.666667l256 188.330666zM362.666667 469.333333a64 64 0 1 0 0-128 64 64 0 0 0 0 128z" /></svg>