<?xml version="1.0" standalone="no"?><!DOCTYPE svg PUBLIC "-//W3C//DTD SVG 1.1//EN" "http://www.w3.org/Graphics/SVG/1.1/DTD/svg11.dtd"><svg class="icon" width="200px" height="200.00px" viewBox="0 0 1024 1024" version="1.1" xmlns="http://www.w3.org/2000/svg"><path fill="#1296db" d="M815.146667 509.653333c0 10.922667-0.597333 21.76-1.706667 32.554667l66.773333 54.272a42.666667 42.666667 0 0 1 10.154667 54.314667l-70.058667 122.154666a42.666667 42.666667 0 0 1-52.48 18.56l-82.773333-32.170666a300.928 300.928 0 0 1-48 27.306666l-13.866667 89.216a42.666667 42.666667 0 0 1-42.154666 36.138667h-140.074667a42.666667 42.666667 0 0 1-42.154667-36.138667l-14.208-91.52a301.226667 301.226667 0 0 1-47.189333-27.946666l-81.237333 31.573333a42.666667 42.666667 0 0 1-52.48-18.517333L133.632 647.253333a42.666667 42.666667 0 0 1 10.154667-54.357333l68.949333-55.978667a308.778667 308.778667 0 0 1 0-54.613333L143.786667 426.368a42.666667 42.666667 0 0 1-10.154667-54.357333l70.058667-122.154667a42.666667 42.666667 0 0 1 52.48-18.56l81.237333 31.616a301.226667 301.226667 0 0 1 47.957333-28.330667l13.44-86.442666a42.666667 42.666667 0 0 1 42.154667-36.138667h140.074667a42.666667 42.666667 0 0 1 42.154666 36.138667l13.056 84.138666c18.048 8.106667 35.242667 17.962667 51.328 29.44l78.250667-30.421333a42.666667 42.666667 0 0 1 52.48 18.56l70.016 122.154667a42.666667 42.666667 0 0 1-10.112 54.357333l-64.597333 52.48c1.024 10.154667 1.536 20.48 1.536 30.805333zM512 661.333333a149.333333 149.333333 0 1 0 0-298.666666 149.333333 149.333333 0 0 0 0 298.666666z m0-85.333333a64 64 0 1 1 0-128 64 64 0 0 1 0 128z" /></svg>