<?xml version="1.0" standalone="no"?><!DOCTYPE svg PUBLIC "-//W3C//DTD SVG 1.1//EN" "http://www.w3.org/Graphics/SVG/1.1/DTD/svg11.dtd"><svg class="icon" width="200px" height="200.00px" viewBox="0 0 1024 1024" version="1.1" xmlns="http://www.w3.org/2000/svg"><path fill="#1afa29" d="M343.272727 884.363636a199.191273 199.191273 0 0 1-87.738182-18.781091l-0.186181-0.09309a23.272727 23.272727 0 0 1-6.632728-37.562182l70.749091-70.795637-53.76-53.76-70.330182 70.376728a23.272727 23.272727 0 0 1-37.632-6.795637l-0.09309-0.186182a199.517091 199.517091 0 0 1-17.966546-87.016727A200.052364 200.052364 0 0 1 183.854545 557.707636c39.005091-48.151273 95.697455-75.031273 156.532364-75.031272 23.412364 0 46.196364 3.956364 67.886546 11.776l85.178181-85.178182a201.239273 201.239273 0 0 1-11.589818-78.103273 200.145455 200.145455 0 0 1 44.125091-116.270545C565.131636 166.609455 621.986909 139.636364 683.008 139.636364c29.044364 0 57.111273 6.074182 83.386182 18.059636l0.186182 0.093091a23.272727 23.272727 0 0 1 6.818909 37.655273l-66.187637 66.210909a4.654545 4.654545 0 0 0 0 6.586182l47.173819 47.19709a4.654545 4.654545 0 0 0 6.562909 0l66.722909-66.769454a23.272727 23.272727 0 0 1 37.515636 6.562909l0.093091 0.186182c13.032727 27.694545 19.456 57.437091 19.083636 88.32a200.866909 200.866909 0 0 1-44.171636 123.368727c-39.144727 48.430545-96.093091 75.473455-157.184 75.473455a199.68 199.68 0 0 1-70.237091-12.590546l-84.014545 84.014546c8.215273 22.178909 12.381091 45.498182 12.381091 69.515636 0 60.928-26.949818 117.713455-75.17091 156.741818A200.005818 200.005818 0 0 1 343.249455 884.363636m-25.995637-48.197818c12.497455 1.861818 25.367273 2.187636 38.4 0.930909a150.318545 150.318545 0 0 0 73.076364-27.112727c41.937455-29.952 65.536-76.288 65.536-126.277818 0-22.760727-4.840727-44.683636-14.382546-65.117091l-6.958545-14.894546 129.559273-129.62909 14.894545 7.028363a153.879273 153.879273 0 0 0 75.008 14.382546 153.274182 153.274182 0 0 0 87.133091-33.419637A154.251636 154.251636 0 0 0 837.818182 340.945455c0-7.982545-0.605091-15.872-1.768727-23.645091a4.677818 4.677818 0 0 0-7.936-2.676364l-53.76 53.76a23.272727 23.272727 0 0 1-32.954182 0l-87.133091-87.202909a23.319273 23.319273 0 0 1 0-32.954182l52.666182-52.689454a4.677818 4.677818 0 0 0-2.792728-7.936 156.555636 156.555636 0 0 0-25.972363-1.326546c-85.108364 2.606545-153.088 76.171636-149.550546 161.28 0.814545 20.014545 5.422545 39.307636 13.707637 57.483636l6.749091 14.801455-130.234182 130.280727-14.778182-6.749091a140.288 140.288 0 0 0-13.358546-5.445818c-101.841455-34.304-201.541818 41.728-204.450909 140.986182-0.232727 8.657455 0.186182 17.175273 1.326546 25.553455 0.512 3.886545 5.12 5.585455 7.912727 2.816l53.550546-53.597091a23.272727 23.272727 0 0 1 32.930909 0l87.156363 87.202909c9.076364 9.099636 9.099636 23.831273 0 32.954182l-54.388363 54.434909c-2.653091 2.653091-1.210182 7.307636 2.513454 7.866181"  /></svg>