<?xml version="1.0" standalone="no"?><!DOCTYPE svg PUBLIC "-//W3C//DTD SVG 1.1//EN" "http://www.w3.org/Graphics/SVG/1.1/DTD/svg11.dtd"><svg class="icon" width="200px" height="200.00px" viewBox="0 0 1024 1024" version="1.1" xmlns="http://www.w3.org/2000/svg"><path fill="#1296db" d="M355.498667 759.424l136.661333-71.850667a42.666667 42.666667 0 0 1 39.68 0l136.661333 71.850667-26.112-152.192a42.666667 42.666667 0 0 1 12.288-37.76l110.549334-107.733333-152.746667-22.186667a42.666667 42.666667 0 0 1-32.170667-23.381333L512 277.76l-68.309333 138.410667a42.666667 42.666667 0 0 1-32.128 23.338666l-152.789334 22.186667 110.549334 107.776a42.666667 42.666667 0 0 1 12.288 37.76L355.498667 759.466667z m-36.821334 115.754667a42.666667 42.666667 0 0 1-61.866666-44.970667l36.906666-215.296-156.416-152.448a42.666667 42.666667 0 0 1 23.637334-72.746667l216.149333-31.402666 96.64-195.84a42.666667 42.666667 0 0 1 76.544 0l96.64 195.84 216.149333 31.402666a42.666667 42.666667 0 0 1 23.637334 72.746667l-156.416 152.448 36.949333 215.296a42.666667 42.666667 0 0 1-61.909333 44.970667L512 773.546667l-193.28 101.632z" /></svg>