<?xml version="1.0" standalone="no"?><!DOCTYPE svg PUBLIC "-//W3C//DTD SVG 1.1//EN" "http://www.w3.org/Graphics/SVG/1.1/DTD/svg11.dtd"><svg class="icon" width="200px" height="200.00px" viewBox="0 0 1024 1024" version="1.1" xmlns="http://www.w3.org/2000/svg"><path fill="#1296db" d="M822.754 940.574h-16.926c-23.612 0-45.297-16.083-53.79-38.731-3.795-1.807-8.614-3.735-12.288-5.602a67.403 67.403 0 0 1-23.733 4.638 54.814 54.814 0 0 1-40.418-16.986l-12.348-12.228a58.549 58.549 0 0 1-12.228-64.21c-1.927-3.796-3.795-7.47-5.722-12.168-23.673-8.554-40.599-30.299-40.599-53.911v-17.89c0-23.612 16.926-45.357 39.635-53.85l5.662-11.385s0-0.843 1.024-0.843a64.03 64.03 0 0 1-4.698-23.672c0-15.06 5.662-30.178 16.926-40.6l12.348-12.347a56.08 56.08 0 0 1 40.418-16.926c8.553 0 16.203 1.987 23.733 4.758 3.734-1.927 8.493-3.795 11.324-4.758a57.946 57.946 0 0 1 53.79-37.708h16.986c23.613 0 45.297 16.023 53.85 38.732 3.735 1.807 8.434 3.794 12.168 5.662a50.598 50.598 0 0 1 23.733-4.638c15.059 0 30.118 5.541 40.478 16.865l12.348 12.288a58.428 58.428 0 0 1 12.228 64.09c1.928 3.796 3.795 7.65 5.662 12.35a58.007 58.007 0 0 1 37.768 53.79v16.986c0 24.576-16.023 45.296-38.732 53.85-1.867 3.795-3.794 8.493-5.722 12.288 2.952 7.53 4.819 15.059 4.819 23.612 0 15.059-5.722 30.238-16.986 40.599l-11.385 11.324a56.26 56.26 0 0 1-40.478 16.986c-8.614 0-16.083-1.867-23.733-4.638-3.795 1.867-7.469 3.795-12.167 5.602a56.742 56.742 0 0 1-52.947 38.671m-76.077-88.004c1.626 0 4.276 0.844 5.963 1.627l5.18 2.59c5.06 2.59 10.24 5.12 14.517 6.867 4.216 1.626 7.71 5.12 8.553 9.336a27.106 27.106 0 0 0 25.6 22.167h15.42a27.106 27.106 0 0 0 25.6-22.167 13.432 13.432 0 0 1 8.554-9.336c6.024-1.747 12.83-5.12 19.637-8.614a13.975 13.975 0 0 1 12.89 0.843c8.553 6.024 23.853 5.18 32.467-4.276l11.083-11.144a26.082 26.082 0 0 0 7.77-18.733c0-5.18-1.807-10.24-4.276-14.637-2.59-3.313-2.59-8.433-0.904-12.71l1.687-2.53c2.59-6.023 6.023-12.047 7.71-17.167a13.613 13.613 0 0 1 9.397-8.553 27.347 27.347 0 0 0 21.323-25.6v-16.204a27.166 27.166 0 0 0-21.323-25.66 13.312 13.312 0 0 1-9.397-8.613c-2.59-6.807-5.12-13.674-8.553-19.577a13.673 13.673 0 0 1 0.843-12.89 27.106 27.106 0 0 0-3.434-33.25l-11.926-11.144c-8.614-8.613-23.07-10.24-32.467-3.433a13.854 13.854 0 0 1-12.89 0.783 86.438 86.438 0 0 0-19.637-8.493 13.734 13.734 0 0 1-8.553-9.397 27.226 27.226 0 0 0-25.6-21.323h-15.42a27.106 27.106 0 0 0-25.6 21.323 13.493 13.493 0 0 1-8.554 9.397c-5.963 1.686-11.987 4.216-19.697 8.493a13.553 13.553 0 0 1-12.77-0.783c-9.397-6.807-23.913-5.18-33.37 3.433l-11.144 11.144a26.443 26.443 0 0 0-3.373 33.25c2.53 3.554 2.53 8.674 0.843 12.89-1.686 2.59-2.53 5.18-4.216 7.71a50.718 50.718 0 0 0-5.963 11.867 13.794 13.794 0 0 1-9.457 8.613c-11.144 2.47-23.01 12.77-23.01 25.66v15.3c0 12.83 11.866 23.13 23.01 25.66 4.276 0.844 7.71 4.217 9.457 8.614 1.626 5.06 4.156 10.3 6.806 15.36l2.53 4.156a13.914 13.914 0 0 1-0.903 12.95 26.323 26.323 0 0 0 4.216 33.311l11.144 11.083a27.046 27.046 0 0 0 33.37 3.434 17.227 17.227 0 0 1 6.867-1.627"  /><path fill="#1296db" d="M812.393 804.804a71.078 71.078 0 0 1-71.378-71.44c0-39.634 31.623-71.378 71.378-71.378s71.38 31.684 71.38 71.379c0 38.972-32.407 71.439-71.38 71.439m0-113.363c-22.648 0-41.14 18.552-41.14 41.2s18.492 41.202 41.14 41.202 41.201-18.553 41.201-41.201-18.552-41.201-41.2-41.201M473.992 501.82a225.581 225.581 0 0 1-225.34-225.34 225.581 225.581 0 0 1 225.34-225.34 225.641 225.641 0 0 1 225.4 225.34 225.702 225.702 0 0 1-225.4 225.34z m0-396.107A170.888 170.888 0 0 0 303.285 276.42a170.888 170.888 0 0 0 170.707 170.707A170.888 170.888 0 0 0 644.698 276.42a170.888 170.888 0 0 0-170.706-170.707z"  /><path fill="#1296db" d="M56.862 948.706c-0.602-8.674-13.553-213.293 114.628-350.87 73.487-78.849 177.513-118.845 309.308-118.845 207.21 0 252.567 85.896 257.024 95.654l-49.694 22.708c-0.06 0-36.08-63.668-207.33-63.668-115.832 0-206.366 34.033-269.07 101.135C99.75 754.688 111.254 942.984 111.314 944.85l-54.453 3.856z m5.12-269.433H7.41c0-79.149 96.738-174.02 177.875-239.676 1.686-1.325 0.662-4.337-0.422-5.903-119.808-174.923 23.914-335.63 25.42-337.257l40.357 36.803c-4.759 5.301-115.772 130.832-20.66 269.614 17.769 26.142 13.311 60.175-10.361 79.27-97.22 78.606-157.636 154.141-157.636 197.15z"  /></svg>